<svg xmlns="http://www.w3.org/2000/svg" viewBox="0 0 1200 675" fill="none">
  <rect width="1200" height="675" fill="#0a0f0e"/>
  <rect x="0" y="0" width="1200" height="675" fill="url(#grid)" opacity="0.04"/>
  <defs>
    <pattern id="grid" width="40" height="40" patternUnits="userSpaceOnUse">
      <path d="M 40 0 L 0 0 0 40" fill="none" stroke="#14b8a6" stroke-width="0.5"/>
    </pattern>
    <linearGradient id="layer-client" x1="0" y1="0" x2="1" y2="0">
      <stop offset="0%" stop-color="#14b8a6" stop-opacity="0.15"/>
      <stop offset="100%" stop-color="#14b8a6" stop-opacity="0.05"/>
    </linearGradient>
    <linearGradient id="layer-edge" x1="0" y1="0" x2="1" y2="0">
      <stop offset="0%" stop-color="#3b82f6" stop-opacity="0.15"/>
      <stop offset="100%" stop-color="#3b82f6" stop-opacity="0.05"/>
    </linearGradient>
    <linearGradient id="layer-server" x1="0" y1="0" x2="1" y2="0">
      <stop offset="0%" stop-color="#22c55e" stop-opacity="0.15"/>
      <stop offset="100%" stop-color="#22c55e" stop-opacity="0.05"/>
    </linearGradient>
    <linearGradient id="layer-data" x1="0" y1="0" x2="1" y2="0">
      <stop offset="0%" stop-color="#eab308" stop-opacity="0.15"/>
      <stop offset="100%" stop-color="#eab308" stop-opacity="0.05"/>
    </linearGradient>
  </defs>
  <rect x="12" y="12" width="1176" height="130" rx="6" fill="url(#layer-client)" stroke="#14b8a6" stroke-opacity="0.2" stroke-width="1"/>
  <rect x="12" y="158" width="1176" height="90" rx="6" fill="url(#layer-edge)" stroke="#3b82f6" stroke-opacity="0.2" stroke-width="1"/>
  <rect x="12" y="264" width="1176" height="130" rx="6" fill="url(#layer-server)" stroke="#22c55e" stroke-opacity="0.2" stroke-width="1"/>
  <rect x="12" y="410" width="1176" height="253" rx="6" fill="url(#layer-data)" stroke="#eab308" stroke-opacity="0.2" stroke-width="1"/>
  <rect x="36" y="32" width="240" height="44" rx="4" fill="#1a2220" stroke="#1e2b28" stroke-width="1"/>
  <rect x="300" y="32" width="240" height="44" rx="4" fill="#1a2220" stroke="#1e2b28" stroke-width="1"/>
  <rect x="564" y="32" width="240" height="44" rx="4" fill="#1a2220" stroke="#1e2b28" stroke-width="1"/>
  <rect x="828" y="32" width="240" height="44" rx="4" fill="#1a2220" stroke="#1e2b28" stroke-width="1"/>
  <rect x="36" y="174" width="500" height="56" rx="4" fill="#1a2220" stroke="#1e2b28" stroke-width="1"/>
  <rect x="560" y="174" width="500" height="56" rx="4" fill="#1a2220" stroke="#1e2b28" stroke-width="1"/>
  <rect x="36" y="280" width="340" height="44" rx="4" fill="#1a2220" stroke="#1e2b28" stroke-width="1"/>
  <rect x="400" y="280" width="340" height="44" rx="4" fill="#1a2220" stroke="#1e2b28" stroke-width="1"/>
  <rect x="764" y="280" width="340" height="44" rx="4" fill="#1a2220" stroke="#1e2b28" stroke-width="1"/>
  <rect x="36" y="340" width="220" height="44" rx="4" fill="#1a2220" stroke="#1e2b28" stroke-width="1"/>
  <rect x="280" y="340" width="220" height="44" rx="4" fill="#1a2220" stroke="#1e2b28" stroke-width="1"/>
  <rect x="524" y="340" width="220" height="44" rx="4" fill="#1a2220" stroke="#1e2b28" stroke-width="1"/>
  <rect x="768" y="340" width="220" height="44" rx="4" fill="#1a2220" stroke="#1e2b28" stroke-width="1"/>
  <rect x="36" y="430" width="360" height="60" rx="4" fill="#1a2220" stroke="#1e2b28" stroke-width="1"/>
  <rect x="420" y="430" width="360" height="60" rx="4" fill="#1a2220" stroke="#1e2b28" stroke-width="1"/>
  <rect x="804" y="430" width="360" height="60" rx="4" fill="#1a2220" stroke="#1e2b28" stroke-width="1"/>
  <rect x="36" y="510" width="540" height="60" rx="4" fill="#1a2220" stroke="#1e2b28" stroke-width="1"/>
  <rect x="600" y="510" width="540" height="60" rx="4" fill="#1a2220" stroke="#1e2b28" stroke-width="1"/>
  <rect x="36" y="590" width="360" height="56" rx="4" fill="#1a2220" stroke="#1e2b28" stroke-width="1"/>
  <rect x="420" y="590" width="360" height="56" rx="4" fill="#1a2220" stroke="#1e2b28" stroke-width="1"/>
  <rect x="804" y="590" width="360" height="56" rx="4" fill="#1a2220" stroke="#1e2b28" stroke-width="1"/>
  <line x1="156" y1="76" x2="300" y2="76" stroke="#14b8a6" stroke-width="1" opacity="0.4"/>
  <line x1="420" y1="76" x2="564" y2="76" stroke="#14b8a6" stroke-width="1" opacity="0.4"/>
  <line x1="684" y1="76" x2="828" y2="76" stroke="#14b8a6" stroke-width="1" opacity="0.4"/>
  <line x1="1000" y1="230" x2="400" y2="280" stroke="#22c55e" stroke-width="1" stroke-dasharray="4 2" opacity="0.3"/>
  <line x1="286" y1="324" x2="36" y2="430" stroke="#eab308" stroke-width="1" stroke-dasharray="4 2" opacity="0.3"/>
  <line x1="570" y1="324" x2="420" y2="430" stroke="#eab308" stroke-width="1" stroke-dasharray="4 2" opacity="0.3"/>
  <text x="48" y="60" fill="#e2e8f0" font-family="JetBrains Mono, monospace" font-size="11" font-weight="600">Next.js 16 App</text>
  <text x="48" y="72" fill="#64748b" font-family="Inter, sans-serif" font-size="9">React 19 / RSC / SSR</text>
  <text x="312" y="60" fill="#e2e8f0" font-family="JetBrains Mono, monospace" font-size="11" font-weight="600">Service Worker</text>
  <text x="312" y="72" fill="#64748b" font-family="Inter, sans-serif" font-size="9">Offline Cache / PWA</text>
  <text x="576" y="60" fill="#e2e8f0" font-family="JetBrains Mono, monospace" font-size="11" font-weight="600">WebSocket Client</text>
  <text x="576" y="72" fill="#64748b" font-family="Inter, sans-serif" font-size="9">Telemetry Stream</text>
  <text x="840" y="60" fill="#e2e8f0" font-family="JetBrains Mono, monospace" font-size="11" font-weight="600">SSE Client</text>
  <text x="840" y="72" fill="#64748b" font-family="Inter, sans-serif" font-size="9">Live KPI Updates</text>
  <text x="24" y="24" fill="#14b8a6" font-family="JetBrains Mono, monospace" font-size="10" font-weight="600">CLIENT LAYER</text>
  <text x="24" y="170" fill="#3b82f6" font-family="JetBrains Mono, monospace" font-size="10" font-weight="600">EDGE LAYER</text>
  <text x="24" y="276" fill="#22c55e" font-family="JetBrains Mono, monospace" font-size="10" font-weight="600">SERVER LAYER</text>
  <text x="24" y="422" fill="#eab308" font-family="JetBrains Mono, monospace" font-size="10" font-weight="600">DATA LAYER</text>
  <text x="48" y="200" fill="#e2e8f0" font-family="JetBrains Mono, monospace" font-size="11">Vercel Edge Network</text>
  <text x="48" y="216" fill="#64748b" font-family="Inter, sans-serif" font-size="9">Middleware / Auth / Geolocation</text>
  <text x="572" y="200" fill="#e2e8f0" font-family="JetBrains Mono, monospace" font-size="11">CDN Cache</text>
  <text x="572" y="216" fill="#64748b" font-family="Inter, sans-serif" font-size="9">Assets / ISR Pages</text>
  <text x="48" y="306" fill="#e2e8f0" font-family="JetBrains Mono, monospace" font-size="11">API Routes (REST)</text>
  <text x="412" y="306" fill="#e2e8f0" font-family="JetBrains Mono, monospace" font-size="11">Server Actions</text>
  <text x="776" y="306" fill="#e2e8f0" font-family="JetBrains Mono, monospace" font-size="11">Route Optimizer</text>
  <text x="48" y="366" fill="#e2e8f0" font-family="JetBrains Mono, monospace" font-size="11">Redis Pub/Sub</text>
  <text x="292" y="366" fill="#e2e8f0" font-family="JetBrains Mono, monospace" font-size="11">Session Store</text>
  <text x="536" y="366" fill="#e2e8f0" font-family="JetBrains Mono, monospace" font-size="11">Rate Limiter</text>
  <text x="780" y="366" fill="#e2e8f0" font-family="JetBrains Mono, monospace" font-size="11">Query Cache</text>
  <text x="48" y="462" fill="#e2e8f0" font-family="JetBrains Mono, monospace" font-size="11">PostgreSQL Primary</text>
  <text x="432" y="462" fill="#e2e8f0" font-family="JetBrains Mono, monospace" font-size="11">Read Replicas</text>
  <text x="816" y="462" fill="#e2e8f0" font-family="JetBrains Mono, monospace" font-size="11">S3 Object Store</text>
  <text x="48" y="542" fill="#e2e8f0" font-family="JetBrains Mono, monospace" font-size="11">Telemetry Events</text>
  <text x="612" y="542" fill="#e2e8f0" font-family="JetBrains Mono, monospace" font-size="11">Fleet / Driver / Delivery</text>
  <text x="48" y="620" fill="#e2e8f0" font-family="JetBrains Mono, monospace" font-size="11">Mapbox / Google Maps</text>
  <text x="432" y="620" fill="#e2e8f0" font-family="JetBrains Mono, monospace" font-size="11">Weather / Traffic</text>
  <text x="816" y="620" fill="#e2e8f0" font-family="JetBrains Mono, monospace" font-size="11">ELD Provider</text>
  <text x="600" y="455" fill="#64748b" font-family="Inter, sans-serif" font-size="8" opacity="0.6">Horizontal Scale</text>
</svg>
