<svg xmlns="http://www.w3.org/2000/svg" viewBox="0 0 1200 675" fill="none">
  <rect width="1200" height="675" fill="#0a0f0e"/>
  <rect x="0" y="0" width="1200" height="675" fill="url(#grid)" opacity="0.04"/>
  <defs>
    <pattern id="grid" width="40" height="40" patternUnits="userSpaceOnUse">
      <path d="M 40 0 L 0 0 0 40" fill="none" stroke="#14b8a6" stroke-width="0.5"/>
    </pattern>
    <linearGradient id="accent-glow" x1="0" y1="0" x2="1" y2="1">
      <stop offset="0%" stop-color="#14b8a6" stop-opacity="0.15"/>
      <stop offset="100%" stop-color="#14b8a6" stop-opacity="0"/>
    </linearGradient>
    <linearGradient id="header-grad" x1="0" y1="0" x2="1" y2="0">
      <stop offset="0%" stop-color="#111817"/>
      <stop offset="100%" stop-color="#1a2220"/>
    </linearGradient>
    <linearGradient id="kpi-grad" x1="0" y1="0" x2="0" y2="1">
      <stop offset="0%" stop-color="#1a2220"/>
      <stop offset="100%" stop-color="#111817"/>
    </linearGradient>
  </defs>
  <rect x="0" y="0" width="1200" height="48" fill="url(#header-grad)"/>
  <rect x="16" y="14" width="120" height="20" rx="4" fill="#14b8a6" opacity="0.9"/>
  <rect x="144" y="14" width="16" height="20" rx="2" fill="#14b8a6" opacity="0.3"/>
  <rect x="1060" y="12" width="60" height="24" rx="4" fill="#1a2220" stroke="#1e2b28" stroke-width="1"/>
  <rect x="1130" y="12" width="50" height="24" rx="4" fill="#1a2220" stroke="#1e2b28" stroke-width="1"/>
  <rect x="12" y="60" width="248" height="48" rx="6" fill="url(#kpi-grad)" stroke="#1e2b28" stroke-width="1"/>
  <rect x="268" y="60" width="248" height="48" rx="6" fill="url(#kpi-grad)" stroke="#1e2b28" stroke-width="1"/>
  <rect x="524" y="60" width="248" height="48" rx="6" fill="url(#kpi-grad)" stroke="#1e2b28" stroke-width="1"/>
  <rect x="780" y="60" width="248" height="48" rx="6" fill="url(#kpi-grad)" stroke="#1e2b28" stroke-width="1"/>
  <rect x="1036" y="60" width="152" height="48" rx="6" fill="url(#kpi-grad)" stroke="#1e2b28" stroke-width="1"/>
  <rect x="12" y="22" width="4" height="4" rx="1" fill="#22c55e"/>
  <rect x="12" y="120" width="1176" height="380" rx="6" fill="#111817" stroke="#1e2b28" stroke-width="1"/>
  <rect x="12" y="512" width="384" height="151" rx="6" fill="#111817" stroke="#1e2b28" stroke-width="1"/>
  <rect x="408" y="512" width="384" height="151" rx="6" fill="#111817" stroke="#1e2b28" stroke-width="1"/>
  <rect x="804" y="512" width="384" height="151" rx="6" fill="#111817" stroke="#1e2b28" stroke-width="1"/>
  <rect x="12" y="132" width="96" height="16" rx="3" fill="#14b8a6" opacity="0.8"/>
  <rect x="12" y="156" width="200" height="8" rx="4" fill="#1a2220"/>
  <text x="24" y="92" fill="#e2e8f0" font-family="JetBrains Mono, monospace" font-size="18" font-weight="700">1,247</text>
  <text x="24" y="104" fill="#64748b" font-family="Inter, sans-serif" font-size="10">Active Vehicles</text>
  <text x="280" y="92" fill="#e2e8f0" font-family="JetBrains Mono, monospace" font-size="18" font-weight="700">98.3%</text>
  <text x="280" y="104" fill="#64748b" font-family="Inter, sans-serif" font-size="10">Fleet Utilization</text>
  <text x="536" y="92" fill="#e2e8f0" font-family="JetBrains Mono, monospace" font-size="18" font-weight="700">842</text>
  <text x="536" y="104" fill="#64748b" font-family="Inter, sans-serif" font-size="10">Active Deliveries</text>
  <text x="792" y="92" fill="#e2e8f0" font-family="JetBrains Mono, monospace" font-size="18" font-weight="700">94.7%</text>
  <text x="792" y="104" fill="#64748b" font-family="Inter, sans-serif" font-size="10">On-Time Rate</text>
  <text x="1048" y="88" fill="#e2e8f0" font-family="JetBrains Mono, monospace" font-size="14" font-weight="500">$12.4k</text>
  <text x="1048" y="102" fill="#64748b" font-family="Inter, sans-serif" font-size="10">Revenue Today</text>
  <rect x="24" y="508" width="64" height="12" rx="3" fill="#14b8a6" opacity="0.6"/>
  <text x="24" y="508" fill="#14b8a6" font-family="JetBrains Mono, monospace" font-size="10">ALERTS</text>
  <rect x="420" y="508" width="80" height="12" rx="3" fill="#14b8a6" opacity="0.6"/>
  <text x="420" y="508" fill="#14b8a6" font-family="JetBrains Mono, monospace" font-size="10">SCHEDULE</text>
  <rect x="816" y="508" width="56" height="12" rx="3" fill="#14b8a6" opacity="0.6"/>
  <text x="816" y="508" fill="#14b8a6" font-family="JetBrains Mono, monospace" font-size="10">RECENT</text>
  <circle cx="60" cy="300" r="120" fill="#14b8a6" opacity="0.05"/>
  <circle cx="60" cy="300" r="80" fill="#14b8a6" opacity="0.08"/>
  <circle cx="60" cy="300" r="40" fill="#14b8a6" opacity="0.12"/>
  <circle cx="600" cy="340" r="180" fill="#14b8a6" opacity="0.03"/>
  <circle cx="900" cy="280" r="100" fill="#14b8a6" opacity="0.04"/>
  <circle cx="350" cy="250" r="60" fill="#14b8a6" opacity="0.06"/>
  <circle cx="750" cy="380" r="50" fill="#14b8a6" opacity="0.05"/>
  <circle cx="500" cy="200" r="40" fill="#22c55e" opacity="0.08"/>
  <circle cx="700" cy="300" r="30" fill="#22c55e" opacity="0.06"/>
  <rect x="1040" y="200" width="8" height="8" rx="2" fill="#22c55e"/>
  <rect x="1040" y="216" width="8" height="8" rx="2" fill="#22c55e"/>
  <rect x="1040" y="232" width="8" height="8" rx="2" fill="#22c55e"/>
  <rect x="1040" y="248" width="8" height="8" rx="2" fill="#22c55e"/>
  <rect x="1040" y="264" width="8" height="8" rx="2" fill="#eab308"/>
  <rect x="1040" y="280" width="8" height="8" rx="2" fill="#ef4444"/>
  <rect x="1056" y="202" width="120" height="6" rx="3" fill="#1a2220"/>
  <rect x="1056" y="218" width="96" height="6" rx="3" fill="#1a2220"/>
  <rect x="1056" y="234" width="132" height="6" rx="3" fill="#1a2220"/>
  <rect x="1056" y="250" width="108" height="6" rx="3" fill="#1a2220"/>
  <rect x="1056" y="266" width="84" height="6" rx="3" fill="#1a2220"/>
  <rect x="1056" y="282" width="114" height="6" rx="3" fill="#1a2220"/>
  <rect x="24" y="540" width="360" height="1" stroke="#1e2b28" stroke-width="1"/>
  <rect x="24" y="556" width="360" height="1" stroke="#1e2b28" stroke-width="1"/>
  <rect x="24" y="572" width="360" height="1" stroke="#1e2b28" stroke-width="1"/>
  <rect x="24" y="588" width="360" height="1" stroke="#1e2b28" stroke-width="1"/>
  <rect x="24" y="604" width="360" height="1" stroke="#1e2b28" stroke-width="1"/>
  <rect x="24" y="620" width="360" height="1" stroke="#1e2b28" stroke-width="1"/>
  <rect x="24" y="636" width="360" height="1" stroke="#1e2b28" stroke-width="1"/>
  <rect x="0" y="0" width="1200" height="1" fill="#14b8a6" opacity="0.3"/>
</svg>
