<svg xmlns="http://www.w3.org/2000/svg" viewBox="0 0 1200 675" fill="none">
  <rect width="1200" height="675" fill="#0a0f0e"/>
  <rect x="0" y="0" width="1200" height="675" fill="url(#grid)" opacity="0.04"/>
  <defs>
    <pattern id="grid" width="40" height="40" patternUnits="userSpaceOnUse">
      <path d="M 40 0 L 0 0 0 40" fill="none" stroke="#14b8a6" stroke-width="0.5"/>
    </pattern>
  </defs>
  <rect x="12" y="12" width="1176" height="651" rx="6" fill="#111817" stroke="#1e2b28" stroke-width="1"/>
  <rect x="12" y="12" width="1176" height="40" rx="6" fill="#1a2220" stroke="#1e2b28" stroke-width="1"/>
  <text x="24" y="36" fill="#14b8a6" font-family="JetBrains Mono, monospace" font-size="12" font-weight="600">FLEET TRACKING</text>
  <circle cx="584" cy="32" r="4" fill="#22c55e"/>
  <text x="594" y="36" fill="#64748b" font-family="Inter, sans-serif" font-size="10">12 active · 3 idle · 1 maintenance</text>
  <rect x="12" y="52" width="300" height="611" rx="0" fill="#0a0f0e"/>
  <rect x="312" y="52" width="876" height="611" rx="0" fill="#0d1117"/>
  <rect x="24" y="64" width="120" height="14" rx="3" fill="#14b8a6" opacity="0.6"/>
  <rect x="24" y="90" width="276" height="44" rx="4" fill="#1a2220" stroke="#1e2b28" stroke-width="1"/>
  <rect x="24" y="142" width="276" height="44" rx="4" fill="#1a2220" stroke="#1e2b28" stroke-width="1"/>
  <rect x="24" y="194" width="276" height="44" rx="4" fill="#1a2220" stroke="#1e2b28" stroke-width="1"/>
  <rect x="24" y="246" width="276" height="44" rx="4" fill="#1a2220" stroke="#1e2b28" stroke-width="1"/>
  <rect x="24" y="298" width="276" height="44" rx="4" fill="#1a2220" stroke="#1e2b28" stroke-width="1"/>
  <rect x="24" y="350" width="276" height="44" rx="4" fill="#1a2220" stroke="#1e2b28" stroke-width="1"/>
  <rect x="36" y="100" width="12" height="12" rx="6" fill="#22c55e"/>
  <rect x="36" y="152" width="12" height="12" rx="6" fill="#22c55e"/>
  <rect x="36" y="204" width="12" height="12" rx="6" fill="#22c55e"/>
  <rect x="36" y="256" width="12" height="12" rx="6" fill="#22c55e"/>
  <rect x="36" y="308" width="12" height="12" rx="6" fill="#eab308"/>
  <rect x="36" y="360" width="12" height="12" rx="6" fill="#ef4444"/>
  <text x="56" y="103" fill="#e2e8f0" font-family="Inter, sans-serif" font-size="12" font-weight="600">FL-1042</text>
  <text x="56" y="155" fill="#e2e8f0" font-family="Inter, sans-serif" font-size="12" font-weight="600">FL-0891</text>
  <text x="56" y="207" fill="#e2e8f0" font-family="Inter, sans-serif" font-size="12" font-weight="600">FL-2137</text>
  <text x="56" y="259" fill="#e2e8f0" font-family="Inter, sans-serif" font-size="12" font-weight="600">FL-0456</text>
  <text x="56" y="311" fill="#eab308" font-family="Inter, sans-serif" font-size="12" font-weight="600">FL-3710</text>
  <text x="56" y="363" fill="#ef4444" font-family="Inter, sans-serif" font-size="12" font-weight="600">FL-1582</text>
  <text x="56" y="116" fill="#64748b" font-family="Inter, sans-serif" font-size="9">67 km/h · NE · J. Martinez</text>
  <text x="56" y="168" fill="#64748b" font-family="Inter, sans-serif" font-size="9">52 km/h · SW · A. Patel</text>
  <text x="56" y="220" fill="#64748b" font-family="Inter, sans-serif" font-size="9">0 km/h · IDLE · M. Chen</text>
  <text x="56" y="272" fill="#64748b" font-family="Inter, sans-serif" font-size="9">45 km/h · NW · K. Johnson</text>
  <text x="56" y="324" fill="#64748b" font-family="Inter, sans-serif" font-size="9">IDLE · Depot · L. Williams</text>
  <text x="56" y="376" fill="#64748b" font-family="Inter, sans-serif" font-size="9">MAINTENANCE · Shop</text>
  <circle cx="680" cy="340" r="200" fill="#14b8a6" opacity="0.03"/>
  <circle cx="680" cy="340" r="140" fill="#14b8a6" opacity="0.05"/>
  <circle cx="680" cy="340" r="80" fill="#14b8a6" opacity="0.08"/>
  <circle cx="680" cy="340" r="30" fill="#14b8a6" opacity="0.12"/>
  <circle cx="680" cy="340" r="6" fill="#14b8a6"/>
  <circle cx="520" cy="280" r="100" fill="#22c55e" opacity="0.04"/>
  <circle cx="520" cy="280" r="50" fill="#22c55e" opacity="0.06"/>
  <circle cx="520" cy="280" r="15" fill="#22c55e" opacity="0.1"/>
  <circle cx="520" cy="280" r="5" fill="#22c55e"/>
  <circle cx="800" cy="200" r="80" fill="#14b8a6" opacity="0.04"/>
  <circle cx="800" cy="200" r="30" fill="#14b8a6" opacity="0.07"/>
  <circle cx="800" cy="200" r="12" fill="#14b8a6" opacity="0.1"/>
  <circle cx="800" cy="200" r="4" fill="#14b8a6"/>
  <circle cx="750" cy="450" r="60" fill="#14b8a6" opacity="0.04"/>
  <circle cx="750" cy="450" r="25" fill="#14b8a6" opacity="0.06"/>
  <circle cx="750" cy="450" r="10" fill="#14b8a6" opacity="0.1"/>
  <circle cx="750" cy="450" r="4" fill="#14b8a6"/>
  <circle cx="450" cy="420" r="40" fill="#eab308" opacity="0.05"/>
  <circle cx="450" cy="420" r="15" fill="#eab308" opacity="0.08"/>
  <circle cx="450" cy="420" r="4" fill="#eab308"/>
  <circle cx="900" cy="350" r="30" fill="#3b82f6" opacity="0.05"/>
  <circle cx="900" cy="350" r="10" fill="#3b82f6" opacity="0.08"/>
  <circle cx="900" cy="350" r="3" fill="#3b82f6"/>
  <rect x="312" y="580" width="876" height="83" rx="0" fill="#0a0f0e"/>
  <rect x="330" y="592" width="140" height="24" rx="4" fill="#1a2220" stroke="#1e2b28" stroke-width="1"/>
  <rect x="486" y="592" width="140" height="24" rx="4" fill="#1a2220" stroke="#1e2b28" stroke-width="1"/>
  <rect x="642" y="592" width="140" height="24" rx="4" fill="#1a2220" stroke="#1e2b28" stroke-width="1"/>
  <rect x="798" y="592" width="140" height="24" rx="4" fill="#14b8a6" opacity="0.9"/>
  <text x="344" y="608" fill="#94a3b8" font-family="Inter, sans-serif" font-size="10" text-anchor="middle">Center Map</text>
  <text x="500" y="608" fill="#94a3b8" font-family="Inter, sans-serif" font-size="10" text-anchor="middle">Show Heatmap</text>
  <text x="656" y="608" fill="#94a3b8" font-family="Inter, sans-serif" font-size="10" text-anchor="middle">Geofences</text>
  <text x="812" y="608" fill="#0a0f0e" font-family="Inter, sans-serif" font-size="10" font-weight="600" text-anchor="middle">Live Telemetry</text>
  <text x="330" y="640" fill="#64748b" font-family="JetBrains Mono, monospace" font-size="9">Zoom: 12.4 · Center: 40.7128°N, 74.0060°W</text>
</svg>
