<svg xmlns="http://www.w3.org/2000/svg" viewBox="0 0 400 675" fill="none">
  <rect width="400" height="675" fill="#0a0f0e"/>
  <defs>
    <linearGradient id="status-grad" x1="0" y1="0" x2="0" y2="1">
      <stop offset="0%" stop-color="#14b8a6"/>
      <stop offset="100%" stop-color="#0d9488"/>
    </linearGradient>
  </defs>
  <rect x="8" y="8" width="384" height="659" rx="24" fill="#111817" stroke="#1e2b28" stroke-width="2"/>
  <rect x="140" y="20" width="120" height="20" rx="10" fill="#1a2220"/>
  <rect x="16" y="52" width="368" height="1" fill="#1e2b28"/>
  <rect x="16" y="64" width="120" height="16" rx="4" fill="#14b8a6" opacity="0.9"/>
  <rect x="16" y="88" width="368" height="120" rx="6" fill="#1a2220" stroke="#1e2b28" stroke-width="1"/>
  <rect x="280" y="96" width="92" height="24" rx="4" fill="#22c55e" opacity="0.15"/>
  <rect x="280" y="126" width="92" height="24" rx="4" fill="#14b8a6" opacity="0.15"/>
  <rect x="280" y="156" width="92" height="24" rx="4" fill="#eab308" opacity="0.15"/>
  <rect x="16" y="220" width="368" height="1" fill="#1e2b28"/>
  <rect x="16" y="232" width="80" height="14" rx="3" fill="#14b8a6" opacity="0.6"/>
  <rect x="16" y="258" width="368" height="48" rx="4" fill="#1a2220" stroke="#1e2b28" stroke-width="1"/>
  <rect x="16" y="314" width="368" height="48" rx="4" fill="#1a2220" stroke="#1e2b28" stroke-width="1"/>
  <rect x="16" y="370" width="368" height="48" rx="4" fill="#1a2220" stroke="#1e2b28" stroke-width="1"/>
  <rect x="16" y="426" width="368" height="48" rx="4" fill="#1a2220" stroke="#1e2b28" stroke-width="1"/>
  <rect x="16" y="482" width="368" height="48" rx="4" fill="#1a2220" stroke="#1e2b28" stroke-width="1"/>
  <rect x="28" y="96" width="48" height="48" rx="8" fill="#14b8a6" opacity="0.15"/>
  <rect x="28" y="268" width="28" height="28" rx="6" fill="#14b8a6" opacity="0.2"/>
  <rect x="28" y="324" width="28" height="28" rx="6" fill="#22c55e" opacity="0.2"/>
  <rect x="28" y="380" width="28" height="28" rx="6" fill="#eab308" opacity="0.2"/>
  <rect x="28" y="436" width="28" height="28" rx="6" fill="#ef4444" opacity="0.2"/>
  <rect x="28" y="492" width="28" height="28" rx="6" fill="#3b82f6" opacity="0.2"/>
  <rect x="16" y="548" width="368" height="50" rx="24" fill="url(#status-grad)" opacity="0.9"/>
  <rect x="16" y="610" width="368" height="45" rx="8" fill="#1a2220"/>
  <rect x="28" y="622" width="44" height="22" rx="6" fill="#14b8a6" opacity="0.3"/>
  <rect x="82" y="622" width="44" height="22" rx="6" fill="#14b8a6" opacity="0.15"/>
  <rect x="136" y="622" width="44" height="22" rx="6" fill="#14b8a6" opacity="0.15"/>
  <rect x="190" y="622" width="44" height="22" rx="6" fill="#14b8a6" opacity="0.15"/>
  <circle cx="52" cy="120" r="16" fill="#14b8a6" opacity="0.4"/>
  <circle cx="52" cy="120" r="6" fill="#14b8a6"/>
  <text x="88" y="104" fill="#e2e8f0" font-family="Inter, sans-serif" font-size="13" font-weight="600">Vehicle #FL-1042</text>
  <text x="88" y="118" fill="#64748b" font-family="Inter, sans-serif" font-size="10">Volvo VNL 860 · EN ROUTE</text>
  <text x="88" y="132" fill="#14b8a6" font-family="JetBrains Mono, monospace" font-size="11">42.3 mi · ETA 14 min</text>
  <text x="290" y="111" fill="#22c55e" font-family="JetBrains Mono, monospace" font-size="10" text-anchor="middle">ACTIVE</text>
  <text x="290" y="141" fill="#14b8a6" font-family="JetBrains Mono, monospace" font-size="10" text-anchor="middle">TELEMETRY</text>
  <text x="290" y="171" fill="#eab308" font-family="JetBrains Mono, monospace" font-size="10" text-anchor="middle">ALERTS</text>
  <rect x="68" y="270" width="80" height="8" rx="4" fill="#1a2220"/>
  <rect x="68" y="326" width="72" height="8" rx="4" fill="#1a2220"/>
  <rect x="68" y="382" width="96" height="8" rx="4" fill="#1a2220"/>
  <rect x="68" y="438" width="64" height="8" rx="4" fill="#1a2220"/>
  <rect x="68" y="494" width="88" height="8" rx="4" fill="#1a2220"/>
  <text x="64" y="278" fill="#e2e8f0" font-family="Inter, sans-serif" font-size="12">Vehicle #FL-0891</text>
  <text x="64" y="334" fill="#e2e8f0" font-family="Inter, sans-serif" font-size="12">Vehicle #FL-2137</text>
  <text x="64" y="390" fill="#e2e8f0" font-family="Inter, sans-serif" font-size="12">Vehicle #FL-0456</text>
  <text x="64" y="446" fill="#e2e8f0" font-family="Inter, sans-serif" font-size="12">Vehicle #FL-3710</text>
  <text x="64" y="502" fill="#e2e8f0" font-family="Inter, sans-serif" font-size="12">Vehicle #FL-1582</text>
  <text x="192" y="575" fill="#e2e8f0" font-family="Inter, sans-serif" font-size="14" font-weight="600" text-anchor="middle">Live Fleet · 12 Active</text>
  <text x="192" y="590" fill="#64748b" font-family="Inter, sans-serif" font-size="10" text-anchor="middle">Tap to view full telemetry</text>
</svg>
