<svg xmlns="http://www.w3.org/2000/svg" viewBox="0 0 800 500" fill="none">
  <rect width="800" height="500" fill="#0a0f0e"/>
  <rect x="0" y="0" width="800" height="500" fill="url(#grid)" opacity="0.04"/>
  <defs>
    <pattern id="grid" width="40" height="40" patternUnits="userSpaceOnUse">
      <path d="M 40 0 L 0 0 0 40" fill="none" stroke="#14b8a6" stroke-width="0.5"/>
    </pattern>
  </defs>
  <rect x="12" y="12" width="776" height="28" rx="4" fill="#111817" stroke="#1e2b28" stroke-width="1"/>
  <text x="24" y="30" fill="#14b8a6" font-family="JetBrains Mono, monospace" font-size="10" font-weight="600">SERVICE HEALTH</text>
  <circle cx="148" cy="26" r="4" fill="#22c55e"/>
  <circle cx="220" cy="26" r="4" fill="#22c55e"/>
  <circle cx="292" cy="26" r="4" fill="#22c55e"/>
  <circle cx="364" cy="26" r="4" fill="#eab308"/>
  <circle cx="436" cy="26" r="4" fill="#22c55e"/>
  <circle cx="508" cy="26" r="4" fill="#22c55e"/>
  <text x="158" y="30" fill="#94a3b8" font-family="Inter, sans-serif" font-size="9">API</text>
  <text x="230" y="30" fill="#94a3b8" font-family="Inter, sans-serif" font-size="9">WS</text>
  <text x="302" y="30" fill="#94a3b8" font-family="Inter, sans-serif" font-size="9">Database</text>
  <text x="374" y="30" fill="#94a3b8" font-family="Inter, sans-serif" font-size="9">Redis</text>
  <text x="446" y="30" fill="#94a3b8" font-family="Inter, sans-serif" font-size="9">Maps</text>
  <text x="518" y="30" fill="#94a3b8" font-family="Inter, sans-serif" font-size="9">Weather</text>
  <rect x="12" y="52" width="380" height="140" rx="6" fill="#111817" stroke="#1e2b28" stroke-width="1"/>
  <rect x="404" y="52" width="384" height="140" rx="6" fill="#111817" stroke="#1e2b28" stroke-width="1"/>
  <rect x="12" y="204" width="248" height="140" rx="6" fill="#111817" stroke="#1e2b28" stroke-width="1"/>
  <rect x="272" y="204" width="248" height="140" rx="6" fill="#111817" stroke="#1e2b28" stroke-width="1"/>
  <rect x="532" y="204" width="256" height="140" rx="6" fill="#111817" stroke="#1e2b28" stroke-width="1"/>
  <rect x="12" y="356" width="380" height="132" rx="6" fill="#111817" stroke="#1e2b28" stroke-width="1"/>
  <rect x="404" y="356" width="384" height="132" rx="6" fill="#111817" stroke="#1e2b28" stroke-width="1"/>
  <rect x="24" y="64" width="80" height="14" rx="3" fill="#14b8a6" opacity="0.7"/>
  <rect x="416" y="64" width="100" height="14" rx="3" fill="#14b8a6" opacity="0.7"/>
  <rect x="24" y="216" width="80" height="14" rx="3" fill="#14b8a6" opacity="0.7"/>
  <rect x="284" y="216" width="100" height="14" rx="3" fill="#14b8a6" opacity="0.7"/>
  <rect x="544" y="216" width="80" height="14" rx="3" fill="#14b8a6" opacity="0.7"/>
  <rect x="24" y="368" width="80" height="14" rx="3" fill="#14b8a6" opacity="0.7"/>
  <rect x="416" y="368" width="120" height="14" rx="3" fill="#14b8a6" opacity="0.7"/>
  <text x="24" y="112" fill="#e2e8f0" font-family="JetBrains Mono, monospace" font-size="24" font-weight="700">1,247</text>
  <text x="24" y="126" fill="#64748b" font-family="Inter, sans-serif" font-size="10">Events / Min</text>
  <text x="24" y="148" fill="#e2e8f0" font-family="JetBrains Mono, monospace" font-size="24" font-weight="700">98.3%</text>
  <text x="24" y="162" fill="#64748b" font-family="Inter, sans-serif" font-size="10">Uptime (30d)</text>
  <line x1="180" y1="90" x2="360" y2="90" stroke="#1e2b28" stroke-width="1"/>
  <rect x="180" y="80" width="20" height="40" rx="2" fill="#14b8a6" opacity="0.3"/>
  <rect x="208" y="70" width="20" height="50" rx="2" fill="#14b8a6" opacity="0.5"/>
  <rect x="236" y="85" width="20" height="35" rx="2" fill="#22c55e" opacity="0.4"/>
  <rect x="264" y="75" width="20" height="45" rx="2" fill="#14b8a6" opacity="0.6"/>
  <rect x="292" y="90" width="20" height="30" rx="2" fill="#14b8a6" opacity="0.4"/>
  <rect x="320" y="65" width="20" height="55" rx="2" fill="#22c55e" opacity="0.5"/>
  <rect x="348" y="80" width="20" height="40" rx="2" fill="#14b8a6" opacity="0.3"/>
  <text x="416" y="100" fill="#e2e8f0" font-family="JetBrains Mono, monospace" font-size="11">API Latency (p50/p95/p99)</text>
  <rect x="416" y="112" width="350" height="8" rx="4" fill="#1a2220"/>
  <rect x="416" y="112" width="280" height="8" rx="4" fill="#22c55e" opacity="0.6"/>
  <rect x="416" y="124" width="350" height="8" rx="4" fill="#1a2220"/>
  <rect x="416" y="124" width="320" height="8" rx="4" fill="#eab308" opacity="0.6"/>
  <rect x="416" y="136" width="350" height="8" rx="4" fill="#1a2220"/>
  <rect x="416" y="136" width="290" height="8" rx="4" fill="#ef4444" opacity="0.6"/>
  <text x="416" y="160" fill="#e2e8f0" font-family="JetBrains Mono, monospace" font-size="11">WebSocket Connections</text>
  <rect x="416" y="172" width="350" height="8" rx="4" fill="#1a2220"/>
  <rect x="416" y="172" width="240" height="8" rx="4" fill="#14b8a6" opacity="0.6"/>
  <text x="240" y="130" fill="#22c55e" font-family="JetBrains Mono, monospace" font-size="10" text-anchor="middle">▲ 12.4%</text>
  <rect x="24" y="240" width="220" height="16" rx="4" fill="#1a2220"/>
  <rect x="24" y="264" width="200" height="16" rx="4" fill="#1a2220"/>
  <rect x="24" y="288" width="224" height="16" rx="4" fill="#1a2220"/>
  <rect x="24" y="312" width="180" height="16" rx="4" fill="#1a2220"/>
  <rect x="272" y="240" width="220" height="16" rx="4" fill="#1a2220"/>
  <rect x="272" y="264" width="200" height="16" rx="4" fill="#1a2220"/>
  <rect x="272" y="288" width="224" height="16" rx="4" fill="#1a2220"/>
  <rect x="272" y="312" width="180" height="16" rx="4" fill="#1a2220"/>
  <rect x="544" y="240" width="220" height="16" rx="4" fill="#1a2220"/>
  <rect x="544" y="264" width="200" height="16" rx="4" fill="#1a2220"/>
  <rect x="544" y="288" width="224" height="16" rx="4" fill="#1a2220"/>
  <rect x="544" y="312" width="180" height="16" rx="4" fill="#1a2220"/>
  <rect x="24" y="392" width="80" height="80" rx="8" fill="#1a2220" stroke="#1e2b28" stroke-width="1"/>
  <rect x="116" y="392" width="80" height="80" rx="8" fill="#1a2220" stroke="#1e2b28" stroke-width="1"/>
  <rect x="208" y="392" width="80" height="80" rx="8" fill="#1a2220" stroke="#1e2b28" stroke-width="1"/>
  <rect x="300" y="392" width="80" height="80" rx="8" fill="#1a2220" stroke="#1e2b28" stroke-width="1"/>
  <rect x="416" y="392" width="350" height="16" rx="4" fill="#1a2220"/>
  <rect x="416" y="416" width="320" height="16" rx="4" fill="#1a2220"/>
  <rect x="416" y="440" width="350" height="16" rx="4" fill="#1a2220"/>
  <rect x="416" y="464" width="280" height="16" rx="4" fill="#1a2220"/>
  <text x="0" y="0" fill="#64748b" font-family="JetBrains Mono, monospace" font-size="8">FLEETWATCH OBSERVABILITY</text>
</svg>
