<svg xmlns="http://www.w3.org/2000/svg" viewBox="0 0 1200 400" fill="none">
  <rect width="1200" height="400" fill="#0a0f0e"/>
  <defs>
    <linearGradient id="hero-grad" x1="0" y1="0" x2="1" y2="1">
      <stop offset="0%" stop-color="#14b8a6" stop-opacity="0.12"/>
      <stop offset="50%" stop-color="#14b8a6" stop-opacity="0.03"/>
      <stop offset="100%" stop-color="#0a0f0e" stop-opacity="0"/>
    </linearGradient>
    <linearGradient id="line-grad" x1="0" y1="0" x2="1" y2="0">
      <stop offset="0%" stop-color="#14b8a6"/>
      <stop offset="100%" stop-color="#14b8a6" stop-opacity="0"/>
    </linearGradient>
  </defs>
  <rect width="1200" height="400" fill="url(#hero-grad)"/>
  <rect x="0" y="0" width="1200" height="400" fill="url(#grid)" opacity="0.04"/>
  <defs>
    <pattern id="grid" width="40" height="40" patternUnits="userSpaceOnUse">
      <path d="M 40 0 L 0 0 0 40" fill="none" stroke="#14b8a6" stroke-width="0.5"/>
    </pattern>
  </defs>
  <line x1="0" y1="0" x2="1200" y2="0" stroke="#14b8a6" stroke-width="1" opacity="0.3"/>
  <rect x="48" y="40" width="200" height="32" rx="4" fill="#14b8a6" opacity="0.9"/>
  <text x="62" y="60" fill="#0a0f0e" font-family="JetBrains Mono, monospace" font-size="14" font-weight="700">FLEETWATCH</text>
  <rect x="48" y="100" width="4" height="80" rx="2" fill="#14b8a6"/>
  <text x="68" y="120" fill="#e2e8f0" font-family="JetBrains Mono, monospace" font-size="36" font-weight="700" letter-spacing="2">FLEET INTELLIGENCE</text>
  <text x="68" y="148" fill="#94a3b8" font-family="Inter, sans-serif" font-size="16">Real-time fleet tracking · Vehicle telemetry · Route optimization</text>
  <text x="68" y="170" fill="#64748b" font-family="Inter, sans-serif" font-size="14">Dispatch coordination · Warehouse logistics · Driver management</text>
  <rect x="68" y="196" width="160" height="36" rx="6" fill="#14b8a6"/>
  <rect x="244" y="196" width="160" height="36" rx="6" fill="#111817" stroke="#1e2b28" stroke-width="1"/>
  <text x="96" y="220" fill="#0a0f0e" font-family="JetBrains Mono, monospace" font-size="12" font-weight="600">VIEW DASHBOARD</text>
  <text x="280" y="220" fill="#e2e8f0" font-family="JetBrains Mono, monospace" font-size="12">DOCUMENTATION</text>
  <circle cx="1000" cy="160" r="120" fill="#14b8a6" opacity="0.06"/>
  <circle cx="1000" cy="160" r="80" fill="#14b8a6" opacity="0.08"/>
  <circle cx="1000" cy="160" r="40" fill="#14b8a6" opacity="0.12"/>
  <circle cx="1000" cy="160" r="12" fill="#14b8a6" opacity="0.6"/>
  <circle cx="1060" cy="120" r="60" fill="#22c55e" opacity="0.06"/>
  <circle cx="1060" cy="120" r="30" fill="#22c55e" opacity="0.08"/>
  <circle cx="1060" cy="120" r="8" fill="#22c55e" opacity="0.5"/>
  <circle cx="920" cy="220" r="40" fill="#eab308" opacity="0.06"/>
  <circle cx="920" cy="220" r="6" fill="#eab308" opacity="0.5"/>
  <circle cx="1080" cy="240" r="20" fill="#3b82f6" opacity="0.06"/>
  <circle cx="1080" cy="240" r="4" fill="#3b82f6" opacity="0.5"/>
  <rect x="68" y="260" width="360" height="1" fill="#14b8a6" opacity="0.15"/>
  <text x="68" y="288" fill="#64748b" font-family="JetBrains Mono, monospace" font-size="11">Next.js 16</text>
  <text x="160" y="288" fill="#64748b" font-family="JetBrains Mono, monospace" font-size="11">TypeScript 5</text>
  <text x="272" y="288" fill="#64748b" font-family="JetBrains Mono, monospace" font-size="11">Tailwind CSS v4</text>
  <text x="68" y="308" fill="#64748b" font-family="JetBrains Mono, monospace" font-size="11">shadcn/ui</text>
  <text x="160" y="308" fill="#64748b" font-family="JetBrains Mono, monospace" font-size="11">Framer Motion</text>
  <text x="272" y="308" fill="#64748b" font-family="JetBrains Mono, monospace" font-size="11">WebSocket SSE</text>
  <line x1="68" y1="320" x2="428" y2="320" stroke="#14b8a6" stroke-opacity="0.1" stroke-width="1"/>
  <text x="68" y="350" fill="#64748b" font-family="Inter, sans-serif" font-size="10" opacity="0.6">© 2026 FLEETWATCH. All rights reserved.</text>
  <text x="1000" y="350" fill="#64748b" font-family="JetBrains Mono, monospace" font-size="9" opacity="0.4">v1.0.0</text>
</svg>
